HIERARCHY
ROOT Hips
{
	OFFSET 0.000000 0.000000 0.000000
	CHANNELS 6 Xposition Yposition Zposition Xrotation Yrotation Zrotation
	JOINT LeftUpLeg_virtual
	{
		OFFSET 0.000000 0.000000 0.000000
		CHANNELS 3 Xrotation Yrotation Zrotation
		JOINT LeftUpLeg
		{
			OFFSET 15.427100 -6.655098 0.678600
			CHANNELS 3 Xrotation Yrotation Zrotation
			JOINT LeftLeg
			{
				OFFSET 4.081073 -39.591068 13.024000
				CHANNELS 3 Xrotation Yrotation Zrotation
				JOINT LeftFoot
				{
					OFFSET -4.081074 -37.707932 -15.979700
					CHANNELS 3 Xrotation Yrotation Zrotation
					JOINT LeftToeBase
					{
						OFFSET 5.346399 -15.068900 20.645000
						CHANNELS 3 Xrotation Yrotation Zrotation
						JOINT LeftToe_End
						{
							OFFSET 2.754700 0.931300 11.300900
							CHANNELS 3 Xrotation Yrotation Zrotation
							End Site
							{
								OFFSET 0 0 0
							}
						}
					}
				}
			}
		}
	}
	JOINT RightUpLeg_virtual
	{
		OFFSET 0.000000 0.000000 0.000000
		CHANNELS 3 Xrotation Yrotation Zrotation
		JOINT RightUpLeg
		{
			OFFSET -15.569500 -6.655098 0.678600
			CHANNELS 3 Xrotation Yrotation Zrotation
			JOINT RightLeg
			{
				OFFSET -4.081825 -39.591045 13.023800
				CHANNELS 3 Xrotation Yrotation Zrotation
				JOINT RightFoot
				{
					OFFSET 4.081824 -37.707954 -15.979600
					CHANNELS 3 Xrotation Yrotation Zrotation
					JOINT RightToeBase
					{
						OFFSET -5.346400 -15.068900 20.645000
						CHANNELS 3 Xrotation Yrotation Zrotation
						JOINT RightToe_End
						{
							OFFSET -2.754700 0.931300 11.300900
							CHANNELS 3 Xrotation Yrotation Zrotation
							End Site
							{
								OFFSET 0 0 0
							}
						}
					}
				}
			}
		}
	}
	JOINT Spine_virtual
	{
		OFFSET 0.000000 0.000000 0.000000
		CHANNELS 3 Xrotation Yrotation Zrotation
		JOINT Spine
		{
			OFFSET -0.279200 12.230698 -2.892100
			CHANNELS 3 Xrotation Yrotation Zrotation
			JOINT Spine1
			{
				OFFSET -0.232667 10.192268 -1.242267
				CHANNELS 3 Xrotation Yrotation Zrotation
				JOINT Spine1_split
				{
					OFFSET -0.232667 10.192268 -1.242267
					CHANNELS 3 Xrotation Yrotation Zrotation
					JOINT Spine2
					{
						OFFSET -0.232667 10.192268 -1.242267
						CHANNELS 3 Xrotation Yrotation Zrotation
						JOINT Neck_virtual
						{
							OFFSET 0.000000 0.000000 0.000000
							CHANNELS 3 Xrotation Yrotation Zrotation
							JOINT Neck
							{
								OFFSET -0.418800 17.814194 8.416900
								CHANNELS 3 Xrotation Yrotation Zrotation
								JOINT Head
								{
									OFFSET 0.000000 7.031097 3.806800
									CHANNELS 3 Xrotation Yrotation Zrotation
									JOINT HeadTop_End
									{
										OFFSET 0.000000 24.646606 12.978600
										CHANNELS 3 Xrotation Yrotation Zrotation
										End Site
										{
											OFFSET 0 0 0
										}
									}
								}
							}
						}
						JOINT LeftShoulder_virtual
						{
							OFFSET 0.000000 0.000000 0.000000
							CHANNELS 3 Xrotation Yrotation Zrotation
							JOINT LeftShoulder
							{
								OFFSET 8.476499 7.247704 -3.868750
								CHANNELS 3 Xrotation Yrotation Zrotation
								JOINT LeftShoulder_split
								{
									OFFSET 8.476499 7.247704 -3.868750
									CHANNELS 3 Xrotation Yrotation Zrotation
									JOINT LeftArm
									{
										OFFSET 9.308998 -2.777710 0.208600
										CHANNELS 3 Xrotation Yrotation Zrotation
										JOINT LeftForeArm
										{
											OFFSET 29.972298 0.000000 0.000000
											CHANNELS 3 Xrotation Yrotation Zrotation
											JOINT LeftHand
											{
												OFFSET 26.026505 0.000000 0.000000
												CHANNELS 3 Xrotation Yrotation Zrotation
												End Site
												{
													OFFSET 0 0 0
												}
											}
										}
									}
								}
							}
						}
						JOINT RightShoulder_virtual
						{
							OFFSET 0.000000 0.000000 0.000000
							CHANNELS 3 Xrotation Yrotation Zrotation
							JOINT RightShoulder
							{
								OFFSET -7.570500 7.247704 -3.868750
								CHANNELS 3 Xrotation Yrotation Zrotation
								JOINT RightShoulder_split
								{
									OFFSET -7.570500 7.247704 -3.868750
									CHANNELS 3 Xrotation Yrotation Zrotation
									JOINT RightArm
									{
										OFFSET -9.308998 -2.777710 0.208500
										CHANNELS 3 Xrotation Yrotation Zrotation
										JOINT RightForeArm
										{
											OFFSET -29.972300 0.000000 0.000000
											CHANNELS 3 Xrotation Yrotation Zrotation
											JOINT RightHand
											{
												OFFSET -26.026505 0.000000 0.000000
												CHANNELS 3 Xrotation Yrotation Zrotation
												End Site
												{
													OFFSET 0 0 0
												}
											}
										}
									}
								}
							}
						}
					}
				}
			}
		}
	}
}
MOTION
Frames: 7
Frame Time: 0.03333333
1.286583 89.942375 0.542549 0.000000 0.000000 0.000000 -1.564453 6.493954 1.072600 -2.191720 7.700463 7.584164 19.171178 -1.754230 -4.441695 -19.005141 1.524972 -6.628774 -0.539679 0.016857 0.625470 0.000000 0.000000 0.000000 -1.717586 5.649885 0.523963 1.826712 -3.137656 -9.938818 20.399895 -4.731188 8.690884 -13.154995 -20.858863 3.819884 -3.808547 0.139987 -0.034251 0.000000 0.000000 0.000000 -0.804556 4.785763 0.066854 -1.593181 -1.749430 -2.598740 0.686969 -0.253659 1.971165 1.767821 -1.441155 -0.094086 0.000000 0.000000 0.000000 0.204739 -0.122067 1.414928 7.418186 1.688385 -0.933710 -2.952350 -0.139656 2.517953 0.000000 0.000000 0.000000 0.803148 0.302459 1.075786 6.742322 -24.903592 -5.943690 -0.443509 -2.402960 -1.798526 6.834649 5.118606 -79.740348 -2.271705 -16.407617 1.738985 0.000000 0.000000 0.000000 0.607106 0.226933 1.988425 1.970466 -6.036803 9.378151 0.754083 6.295823 -0.666733 7.023881 18.128297 72.870120 1.455439 15.111414 -0.568540 0.000000 0.000000 0.000000 
1.143870 89.899559 0.407578 0.000000 0.000000 0.000000 -1.568180 6.617015 1.084128 -2.156529 7.879288 7.577718 19.201250 -1.819517 -4.495419 -19.086200 1.472093 -6.526485 -0.531839 0.010476 0.671099 0.000000 0.000000 0.000000 -1.710239 5.719091 0.530135 1.784876 -3.185165 -9.880639 20.540370 -4.765108 8.699749 -13.233592 -20.826278 3.776098 -3.794130 0.154009 -0.067282 0.000000 0.000000 0.000000 -0.824083 4.618522 0.196409 -1.616625 -1.752546 -2.653020 0.640359 -0.274587 1.934193 1.698928 -1.442860 -0.084896 0.000000 0.000000 0.000000 0.210957 -0.113156 1.378655 7.526331 1.710785 -1.074177 -2.922560 0.004674 2.386342 0.000000 0.000000 0.000000 0.779144 0.288588 1.047688 6.790391 -24.907490 -5.977607 -0.409793 -2.219000 -2.030102 6.736292 4.840771 -79.874978 -2.289067 -16.614642 1.714986 0.000000 0.000000 0.000000 0.578382 0.221731 2.002184 1.942915 -6.044128 9.364942 0.654577 6.604692 -0.721617 7.217623 18.000444 72.826373 1.508976 15.068241 -0.638675 0.000000 0.000000 0.000000 
1.000386 89.840553 0.356117 0.000000 0.000000 0.000000 -1.628458 6.706388 1.095296 -2.062587 8.031491 7.571679 19.148026 -1.881516 -4.502722 -19.133839 1.474685 -6.452209 -0.555029 0.003543 0.695360 0.000000 0.000000 0.000000 -1.689919 5.724910 0.544926 1.752573 -3.141564 -9.884166 20.728371 -4.774972 8.736878 -13.110517 -20.758357 3.852762 -3.926071 0.177435 -0.128988 0.000000 0.000000 0.000000 -0.879802 4.599238 0.325782 -1.610309 -1.723769 -2.700983 0.558165 -0.297133 1.887987 1.603955 -1.330836 0.003558 0.000000 0.000000 0.000000 0.201622 -0.110832 1.357220 7.545841 1.732725 -1.281939 -2.933468 -0.002632 2.288647 0.000000 0.000000 0.000000 0.731618 0.288011 1.036438 6.806665 -24.980056 -6.075311 -0.459307 -2.060013 -2.259323 6.869890 4.175546 -79.789143 -2.155165 -16.778821 1.705429 0.000000 0.000000 0.000000 0.548255 0.210797 1.988399 1.880487 -5.986560 9.420760 0.735590 6.792971 -0.839772 7.170559 18.004507 72.607670 1.508049 15.119585 -0.630737 0.000000 0.000000 0.000000 
0.882941 89.787949 0.412853 0.000000 0.000000 0.000000 -1.725984 6.704684 1.093291 -1.922563 8.125022 7.572859 19.020581 -1.898853 -4.451767 -19.122585 1.520508 -6.407082 -0.577108 -0.001703 0.684311 0.000000 0.000000 0.000000 -1.648859 5.711477 0.555670 1.755142 -3.039825 -9.913337 20.893427 -4.774788 8.778206 -12.860752 -20.657327 3.985366 -4.172768 0.212403 -0.200434 0.000000 0.000000 0.000000 -0.925649 4.711420 0.419050 -1.556766 -1.685671 -2.735174 0.450776 -0.326702 1.840374 1.581014 -1.289086 0.167867 0.000000 0.000000 0.000000 0.174316 -0.115527 1.357634 7.499427 1.787077 -1.503051 -2.959956 -0.152920 2.245046 0.000000 0.000000 0.000000 0.652672 0.292142 1.048761 6.797380 -25.106455 -6.175561 -0.540521 -1.886749 -2.499366 7.177781 3.305923 -79.444567 -1.910718 -16.902481 1.672290 0.000000 0.000000 0.000000 0.499279 0.183731 1.951889 1.789009 -5.864537 9.575569 0.962822 6.779523 -0.900023 6.947171 18.108138 72.295667 1.453794 15.346076 -0.558443 0.000000 0.000000 0.000000 
0.815839 89.764069 0.552719 0.000000 0.000000 0.000000 -1.794349 6.620439 1.063782 -1.761346 8.109082 7.590334 18.850443 -1.849615 -4.327776 -19.062573 1.583361 -6.386136 -0.589106 -0.003846 0.642436 0.000000 0.000000 0.000000 -1.596967 5.704669 0.545286 1.776215 -2.957756 -9.942196 21.029087 -4.790179 8.810725 -12.558362 -20.532379 4.119373 -4.453747 0.258932 -0.266697 0.000000 0.000000 0.000000 -0.934559 4.833545 0.449640 -1.434417 -1.655661 -2.744128 0.328776 -0.366908 1.799607 1.623400 -1.314922 0.258127 0.000000 0.000000 0.000000 0.120115 -0.131336 1.379294 7.406427 1.868953 -1.678576 -3.006037 -0.398806 2.258991 0.000000 0.000000 0.000000 0.550879 0.295482 1.082995 6.789190 -25.261569 -6.172687 -0.545822 -1.739949 -2.726720 7.596746 2.390766 -78.869854 -1.640058 -17.082383 1.574764 0.000000 0.000000 0.000000 0.417547 0.134173 1.900636 1.676047 -5.699858 9.805818 1.270966 6.604835 -0.920203 6.607379 18.293366 71.970967 1.364078 15.883286 -0.420847 0.000000 0.000000 0.000000 
0.791705 89.761795 0.713444 0.000000 0.000000 0.000000 -1.807938 6.491722 0.998780 -1.587354 7.930701 7.612721 18.688007 -1.721442 -4.113494 -19.002872 1.631495 -6.375691 -0.582581 -0.003893 0.585194 0.000000 0.000000 0.000000 -1.551911 5.686454 0.504897 1.772378 -2.964639 -9.957135 21.185239 -4.825952 8.840530 -12.248531 -20.382932 4.268260 -4.737715 0.311475 -0.319922 0.000000 0.000000 0.000000 -0.911774 4.883566 0.403760 -1.215488 -1.645131 -2.722801 0.203529 -0.420112 1.769153 1.744118 -1.337570 0.336125 0.000000 0.000000 0.000000 0.028388 -0.156931 1.412384 7.288138 1.977952 -1.785301 -3.044061 -0.705132 2.333016 0.000000 0.000000 0.000000 0.426648 0.295486 1.133776 6.803904 -25.422444 -6.000930 -0.417843 -1.644686 -2.907864 7.993763 1.569845 -78.170210 -1.395514 -17.296863 1.396134 0.000000 0.000000 0.000000 0.299176 0.070546 1.841682 1.554280 -5.517192 10.056175 1.666544 6.338567 -0.873709 6.197669 18.524146 71.711003 1.269239 16.727770 -0.231947 0.000000 0.000000 0.000000 
0.825614 89.755470 0.855591 0.000000 0.000000 0.000000 -1.778239 6.334343 0.910491 -1.413452 7.588268 7.601977 18.611847 -1.504142 -3.817806 -19.015387 1.642985 -6.377987 -0.564717 -0.000285 0.520368 0.000000 0.000000 0.000000 -1.556830 5.613598 0.439151 1.707158 -3.112818 -9.955509 21.437203 -4.874689 8.866179 -12.002440 -20.190347 4.450907 -5.065340 0.362923 -0.365937 0.000000 0.000000 0.000000 -0.878213 4.793582 0.297656 -0.877628 -1.665048 -2.673044 0.090537 -0.469107 1.753997 1.936875 -1.240493 0.299251 0.000000 0.000000 0.000000 -0.090788 -0.183779 1.446129 7.152334 2.103252 -1.808634 -3.040081 -1.035702 2.440090 0.000000 0.000000 0.000000 0.294975 0.295820 1.193015 6.849475 -25.525245 -5.650730 -0.169497 -1.605884 -3.049625 8.233360 0.898491 -77.507450 -1.186875 -17.601987 1.156330 0.000000 0.000000 0.000000 0.169529 0.008846 1.778685 1.428152 -5.337373 10.275896 2.104216 6.062321 -0.807420 5.700785 18.706276 71.494356 1.195499 17.670587 -0.023189 0.000000 0.000000 0.000000 
